<?xml version="1.0" encoding="UTF-8"?><svg xmlns="http://www.w3.org/2000/svg" xmlns:xlink="http://www.w3.org/1999/xlink" fill-opacity="1" color-rendering="auto" color-interpolation="auto" text-rendering="auto" stroke="black" stroke-linecap="square" width="182" stroke-miterlimit="10" shape-rendering="auto" stroke-opacity="1" fill="black" stroke-dasharray="none" font-weight="normal" stroke-width="1" height="136" font-family="'Dialog'" font-style="normal" stroke-linejoin="miter" font-size="12px" stroke-dashoffset="0" image-rendering="auto">
  <!--Generated by ySVG 2.5-->
  <defs id="genericDefs"/>
  <g>
    <defs id="defs1">
      <clipPath clipPathUnits="userSpaceOnUse" id="clipPath1">
        <path d="M0 0 L182 0 L182 136 L0 136 L0 0 Z"/>
      </clipPath>
      <clipPath clipPathUnits="userSpaceOnUse" id="clipPath2">
        <path d="M233 229 L415 229 L415 365 L233 365 L233 229 Z"/>
      </clipPath>
    </defs>
    <g fill="white" text-rendering="geometricPrecision" shape-rendering="geometricPrecision" transform="translate(-233,-229)" stroke="white">
      <rect x="233" width="182" height="136" y="229" clip-path="url(#clipPath2)" stroke="none"/>
    </g>
    <g text-rendering="geometricPrecision" stroke-miterlimit="1.45" stroke-width="3" shape-rendering="geometricPrecision" transform="matrix(1,0,0,1,-233,-229)" stroke-linecap="butt">
      <circle fill="none" r="39" clip-path="url(#clipPath2)" cx="287.2203" cy="300.5"/>
      <text x="275.6539" font-size="16px" y="306.0469" clip-path="url(#clipPath2)" font-family="sans-serif" stroke="none" stroke-width="1" xml:space="preserve">&lt;/&gt;</text>
    </g>
    <g fill="rgb(204,255,204)" text-rendering="geometricPrecision" shape-rendering="geometricPrecision" transform="matrix(1,0,0,1,-233,-229)" stroke="rgb(204,255,204)">
      <rect x="346.2203" width="53" height="26.5" y="244" clip-path="url(#clipPath2)" stroke="none"/>
    </g>
    <g text-rendering="geometricPrecision" stroke-miterlimit="1.45" shape-rendering="geometricPrecision" transform="matrix(1,0,0,1,-233,-229)" stroke-linecap="butt">
      <path fill="none" d="M352.8453 244 L346.2203 244 L346.2203 270.5 L352.8453 270.5" clip-path="url(#clipPath2)"/>
      <text x="362.4938" font-size="16px" y="262.7969" clip-path="url(#clipPath2)" font-family="sans-serif" stroke="none" xml:space="preserve">R1</text>
    </g>
    <g fill="rgb(255,255,153)" text-rendering="geometricPrecision" shape-rendering="geometricPrecision" transform="matrix(1,0,0,1,-233,-229)" stroke="rgb(255,255,153)">
      <rect x="346.2203" width="53" height="26.5" y="283.5" clip-path="url(#clipPath2)" stroke="none"/>
    </g>
    <g text-rendering="geometricPrecision" stroke-miterlimit="1.45" shape-rendering="geometricPrecision" transform="matrix(1,0,0,1,-233,-229)" stroke-linecap="butt">
      <path fill="none" d="M352.8453 283.5 L346.2203 283.5 L346.2203 310 L352.8453 310" clip-path="url(#clipPath2)"/>
      <text x="362.4938" font-size="16px" y="302.2969" clip-path="url(#clipPath2)" font-family="sans-serif" stroke="none" xml:space="preserve">R2</text>
    </g>
    <g fill="rgb(255,255,153)" text-rendering="geometricPrecision" shape-rendering="geometricPrecision" transform="matrix(1,0,0,1,-233,-229)" stroke="rgb(255,255,153)">
      <rect x="346.2203" width="53" height="26.5" y="323" clip-path="url(#clipPath2)" stroke="none"/>
    </g>
    <g text-rendering="geometricPrecision" stroke-miterlimit="1.45" shape-rendering="geometricPrecision" transform="matrix(1,0,0,1,-233,-229)" stroke-linecap="butt">
      <path fill="none" d="M352.8453 323 L346.2203 323 L346.2203 349.5 L352.8453 349.5" clip-path="url(#clipPath2)"/>
      <text x="362.4938" font-size="16px" y="341.7969" clip-path="url(#clipPath2)" font-family="sans-serif" stroke="none" xml:space="preserve">R3</text>
    </g>
  </g>
</svg>
