<?xml version="1.0" encoding="UTF-8"?><svg xmlns="http://www.w3.org/2000/svg" xmlns:xlink="http://www.w3.org/1999/xlink" fill-opacity="1" color-rendering="auto" color-interpolation="auto" text-rendering="auto" stroke="black" stroke-linecap="square" width="182" stroke-miterlimit="10" shape-rendering="auto" stroke-opacity="1" fill="black" stroke-dasharray="none" font-weight="normal" stroke-width="1" height="136" font-family="'Dialog'" font-style="normal" stroke-linejoin="miter" font-size="12px" stroke-dashoffset="0" image-rendering="auto">
  <!--Generated by ySVG 2.5-->
  <defs id="genericDefs"/>
  <g>
    <defs id="defs1">
      <clipPath clipPathUnits="userSpaceOnUse" id="clipPath1">
        <path d="M0 0 L182 0 L182 136 L0 136 L0 0 Z"/>
      </clipPath>
      <clipPath clipPathUnits="userSpaceOnUse" id="clipPath2">
        <path d="M258 254 L440 254 L440 390 L258 390 L258 254 Z"/>
      </clipPath>
    </defs>
    <g fill="white" text-rendering="geometricPrecision" shape-rendering="geometricPrecision" transform="translate(-258,-254)" stroke="white">
      <rect x="258" width="182" height="136" y="254" clip-path="url(#clipPath2)" stroke="none"/>
    </g>
    <g text-rendering="geometricPrecision" stroke-miterlimit="1.45" stroke-width="3" shape-rendering="geometricPrecision" transform="matrix(1,0,0,1,-258,-254)" stroke-linecap="butt">
      <circle fill="none" r="39" clip-path="url(#clipPath2)" cx="312.4407" cy="325.5"/>
      <text x="300.8743" font-size="16px" y="331.0469" clip-path="url(#clipPath2)" font-family="sans-serif" stroke="none" stroke-width="1" xml:space="preserve">&lt;/&gt;</text>
    </g>
    <g fill="rgb(204,255,204)" text-rendering="geometricPrecision" shape-rendering="geometricPrecision" transform="matrix(1,0,0,1,-258,-254)" stroke="rgb(204,255,204)">
      <rect x="371.4407" width="53" height="26.5" y="269" clip-path="url(#clipPath2)" stroke="none"/>
    </g>
    <g text-rendering="geometricPrecision" stroke-miterlimit="1.45" shape-rendering="geometricPrecision" transform="matrix(1,0,0,1,-258,-254)" stroke-linecap="butt">
      <path fill="none" d="M378.0657 269 L371.4407 269 L371.4407 295.5 L378.0657 295.5" clip-path="url(#clipPath2)"/>
      <text x="387.7141" font-size="16px" y="287.7969" clip-path="url(#clipPath2)" font-family="sans-serif" stroke="none" xml:space="preserve">R1</text>
    </g>
    <g fill="rgb(255,255,153)" text-rendering="geometricPrecision" shape-rendering="geometricPrecision" transform="matrix(1,0,0,1,-258,-254)" stroke="rgb(255,255,153)">
      <rect x="371.4407" width="53" height="26.5" y="308.5" clip-path="url(#clipPath2)" stroke="none"/>
    </g>
    <g text-rendering="geometricPrecision" stroke-miterlimit="1.45" shape-rendering="geometricPrecision" transform="matrix(1,0,0,1,-258,-254)" stroke-linecap="butt">
      <path fill="none" d="M378.0657 308.5 L371.4407 308.5 L371.4407 335 L378.0657 335" clip-path="url(#clipPath2)"/>
      <text x="387.7141" font-size="16px" y="327.2969" clip-path="url(#clipPath2)" font-family="sans-serif" stroke="none" xml:space="preserve">R2</text>
    </g>
    <g stroke-linecap="butt" transform="matrix(1,0,0,1,-258,-254)" fill="silver" text-rendering="geometricPrecision" shape-rendering="geometricPrecision" stroke="silver" stroke-miterlimit="1.45">
      <path fill="none" d="M378.0657 348 L371.4407 348 L371.4407 374.5 L378.0657 374.5" clip-path="url(#clipPath2)"/>
      <text x="387.7141" font-size="16px" y="366.7969" clip-path="url(#clipPath2)" font-family="sans-serif" stroke="none" xml:space="preserve">R3</text>
    </g>
  </g>
</svg>
