<?xml version="1.0" encoding="UTF-8"?><svg xmlns="http://www.w3.org/2000/svg" xmlns:xlink="http://www.w3.org/1999/xlink" fill-opacity="1" color-rendering="auto" color-interpolation="auto" text-rendering="auto" stroke="black" stroke-linecap="square" width="438" stroke-miterlimit="10" shape-rendering="auto" stroke-opacity="1" fill="black" stroke-dasharray="none" font-weight="normal" stroke-width="1" height="462" font-family="'Dialog'" font-style="normal" stroke-linejoin="miter" font-size="12px" stroke-dashoffset="0" image-rendering="auto">
  <!--Generated by ySVG 2.5-->
  <defs id="genericDefs"/>
  <g>
    <defs id="defs1">
      <clipPath clipPathUnits="userSpaceOnUse" id="clipPath1">
        <path d="M0 0 L438 0 L438 462 L0 462 L0 0 Z"/>
      </clipPath>
      <clipPath clipPathUnits="userSpaceOnUse" id="clipPath2">
        <path d="M10 10 L448 10 L448 472 L10 472 L10 10 Z"/>
      </clipPath>
    </defs>
    <g fill="white" text-rendering="geometricPrecision" shape-rendering="geometricPrecision" transform="translate(-10,-10)" stroke="white">
      <rect x="10" width="438" height="462" y="10" clip-path="url(#clipPath2)" stroke="none"/>
    </g>
    <g text-rendering="geometricPrecision" stroke-miterlimit="1.45" shape-rendering="geometricPrecision" transform="matrix(1,0,0,1,-10,-10)" stroke-linecap="butt">
      <circle fill="none" r="39" clip-path="url(#clipPath2)" cx="64" cy="300"/>
      <text x="52.4336" font-size="16px" y="305.5469" clip-path="url(#clipPath2)" font-family="sans-serif" stroke="none" xml:space="preserve">&lt;/&gt;</text>
      <circle fill="none" r="39" clip-path="url(#clipPath2)" cx="162" cy="300"/>
      <text x="150.4336" font-size="16px" y="305.5469" clip-path="url(#clipPath2)" font-family="sans-serif" stroke="none" xml:space="preserve">&lt;/&gt;</text>
      <circle fill="none" r="39" clip-path="url(#clipPath2)" cx="64" cy="182"/>
      <text x="52.4336" font-size="16px" y="187.5469" clip-path="url(#clipPath2)" font-family="sans-serif" stroke="none" xml:space="preserve">&lt;/&gt;</text>
      <circle fill="none" r="39" clip-path="url(#clipPath2)" cx="224.3051" cy="182"/>
      <text x="212.7387" font-size="16px" y="187.5469" clip-path="url(#clipPath2)" font-family="sans-serif" stroke="none" xml:space="preserve">&lt;/&gt;</text>
      <circle fill="none" r="39" clip-path="url(#clipPath2)" cx="286.6102" cy="300"/>
      <text x="275.0438" font-size="16px" y="305.5469" clip-path="url(#clipPath2)" font-family="sans-serif" stroke="none" xml:space="preserve">&lt;/&gt;</text>
      <circle fill="none" r="39" clip-path="url(#clipPath2)" cx="286.6102" cy="418"/>
      <text x="275.0438" font-size="16px" y="423.5469" clip-path="url(#clipPath2)" font-family="sans-serif" stroke="none" xml:space="preserve">&lt;/&gt;</text>
      <circle fill="none" r="39" clip-path="url(#clipPath2)" cx="144.1525" cy="64"/>
      <text x="132.5861" font-size="16px" y="69.5469" clip-path="url(#clipPath2)" font-family="sans-serif" stroke="none" xml:space="preserve">&lt;/&gt;</text>
      <path fill="none" d="M64 221 L64 261" clip-path="url(#clipPath2)"/>
      <path fill="none" d="M206.0953 216.4877 L180.2098 265.5123" clip-path="url(#clipPath2)"/>
      <path fill="none" d="M242.5149 216.4877 L268.4003 265.5123" clip-path="url(#clipPath2)"/>
      <path fill="none" d="M286.6102 339 L286.6102 379" clip-path="url(#clipPath2)"/>
      <path fill="none" d="M122.2388 96.2612 L85.9137 149.7388" clip-path="url(#clipPath2)"/>
      <path fill="none" d="M166.0663 96.2612 L202.3913 149.7388" clip-path="url(#clipPath2)"/>
    </g>
    <g fill="rgb(204,255,204)" text-rendering="geometricPrecision" shape-rendering="geometricPrecision" transform="matrix(1,0,0,1,-10,-10)" stroke="rgb(204,255,204)">
      <rect x="257.6102" y="25" clip-path="url(#clipPath2)" width="83" rx="4" ry="4" height="77.2578" stroke="none"/>
    </g>
    <g font-size="15px" stroke-linecap="butt" transform="matrix(1,0,0,1,-10,-10)" text-rendering="geometricPrecision" font-family="sans-serif" shape-rendering="geometricPrecision" stroke-miterlimit="1.45">
      <text x="320.263" xml:space="preserve" y="40.5791" clip-path="url(#clipPath2)" stroke="none">P1</text>
      <rect x="257.6102" y="25" clip-path="url(#clipPath2)" fill="none" width="83" stroke-dasharray="6,2" rx="4" ry="4" height="77.2578"/>
    </g>
    <g text-rendering="geometricPrecision" stroke-miterlimit="1.45" shape-rendering="geometricPrecision" transform="matrix(1,0,0,1,-10,-10)" stroke-linecap="butt">
      <path fill="none" d="M279.2352 60.7578 L272.6102 60.7578 L272.6102 87.2578 L279.2352 87.2578" clip-path="url(#clipPath2)"/>
      <text x="288.8836" font-size="16px" y="79.5547" clip-path="url(#clipPath2)" font-family="sans-serif" stroke="none" xml:space="preserve">R1</text>
    </g>
    <g fill="rgb(255,255,153)" text-rendering="geometricPrecision" shape-rendering="geometricPrecision" transform="matrix(1,0,0,1,-10,-10)" stroke="rgb(255,255,153)">
      <rect x="349.6102" y="25" clip-path="url(#clipPath2)" width="83" rx="4" ry="4" height="116.7578" stroke="none"/>
    </g>
    <g font-size="15px" stroke-linecap="butt" transform="matrix(1,0,0,1,-10,-10)" text-rendering="geometricPrecision" font-family="sans-serif" shape-rendering="geometricPrecision" stroke-miterlimit="1.45">
      <text x="412.263" xml:space="preserve" y="40.5791" clip-path="url(#clipPath2)" stroke="none">P2</text>
      <rect x="349.6102" y="25" clip-path="url(#clipPath2)" fill="none" width="83" stroke-dasharray="6,2" rx="4" ry="4" height="116.7578"/>
    </g>
    <g text-rendering="geometricPrecision" stroke-miterlimit="1.45" shape-rendering="geometricPrecision" transform="matrix(1,0,0,1,-10,-10)" stroke-linecap="butt">
      <path fill="none" d="M371.2352 60.7578 L364.6102 60.7578 L364.6102 87.2578 L371.2352 87.2578" clip-path="url(#clipPath2)"/>
      <text x="380.8836" font-size="16px" y="79.5547" clip-path="url(#clipPath2)" font-family="sans-serif" stroke="none" xml:space="preserve">R2</text>
    </g>
    <g text-rendering="geometricPrecision" stroke-miterlimit="1.45" shape-rendering="geometricPrecision" transform="matrix(1,0,0,1,-10,-10)" stroke-linecap="butt">
      <path fill="none" d="M371.2352 100.2578 L364.6102 100.2578 L364.6102 126.7578 L371.2352 126.7578" clip-path="url(#clipPath2)"/>
      <text x="380.8836" font-size="16px" y="119.0547" clip-path="url(#clipPath2)" font-family="sans-serif" stroke="none" xml:space="preserve">R3</text>
    </g>
  </g>
</svg>
