<?xml version="1.0" encoding="UTF-8"?><svg xmlns="http://www.w3.org/2000/svg" xmlns:xlink="http://www.w3.org/1999/xlink" fill-opacity="1" color-rendering="auto" color-interpolation="auto" text-rendering="auto" stroke="black" stroke-linecap="square" width="438" stroke-miterlimit="10" shape-rendering="auto" stroke-opacity="1" fill="black" stroke-dasharray="none" font-weight="normal" stroke-width="1" height="462" font-family="'Dialog'" font-style="normal" stroke-linejoin="miter" font-size="12px" stroke-dashoffset="0" image-rendering="auto">
  <!--Generated by ySVG 2.5-->
  <defs id="genericDefs"/>
  <g>
    <defs id="defs1">
      <clipPath clipPathUnits="userSpaceOnUse" id="clipPath1">
        <path d="M0 0 L438 0 L438 462 L0 462 L0 0 Z"/>
      </clipPath>
      <clipPath clipPathUnits="userSpaceOnUse" id="clipPath2">
        <path d="M-15 -15 L423 -15 L423 447 L-15 447 L-15 -15 Z"/>
      </clipPath>
    </defs>
    <g fill="white" text-rendering="geometricPrecision" shape-rendering="geometricPrecision" transform="translate(15,15)" stroke="white">
      <rect x="-15" width="438" height="462" y="-15" clip-path="url(#clipPath2)" stroke="none"/>
    </g>
    <g text-rendering="geometricPrecision" stroke-miterlimit="1.45" shape-rendering="geometricPrecision" transform="matrix(1,0,0,1,15,15)" stroke-linecap="butt">
      <circle fill="none" r="39" clip-path="url(#clipPath2)" cx="39" cy="275"/>
      <text x="27.4336" font-size="16px" y="280.5469" clip-path="url(#clipPath2)" font-family="sans-serif" stroke="none" xml:space="preserve">&lt;/&gt;</text>
      <circle fill="none" r="39" clip-path="url(#clipPath2)" cx="137" cy="275"/>
      <text x="125.4336" font-size="16px" y="280.5469" clip-path="url(#clipPath2)" font-family="sans-serif" stroke="none" xml:space="preserve">&lt;/&gt;</text>
      <circle fill="none" r="39" clip-path="url(#clipPath2)" cx="39" cy="157"/>
      <text x="27.4336" font-size="16px" y="162.5469" clip-path="url(#clipPath2)" font-family="sans-serif" stroke="none" xml:space="preserve">&lt;/&gt;</text>
      <circle fill="none" r="39" clip-path="url(#clipPath2)" cx="199.3051" cy="157"/>
      <text x="187.7387" font-size="16px" y="162.5469" clip-path="url(#clipPath2)" font-family="sans-serif" stroke="none" xml:space="preserve">&lt;/&gt;</text>
      <circle fill="none" stroke-width="4" r="39" clip-path="url(#clipPath2)" cx="261.6102" cy="275"/>
      <text x="250.0438" font-size="16px" y="280.5469" clip-path="url(#clipPath2)" font-family="sans-serif" stroke="none" xml:space="preserve">&lt;/&gt;</text>
      <circle fill="none" r="39" clip-path="url(#clipPath2)" cx="261.6102" cy="393"/>
      <text x="250.0438" font-size="16px" y="398.5469" clip-path="url(#clipPath2)" font-family="sans-serif" stroke="none" xml:space="preserve">&lt;/&gt;</text>
      <circle fill="none" r="39" clip-path="url(#clipPath2)" cx="119.1525" cy="39"/>
      <text x="107.5861" font-size="16px" y="44.5469" clip-path="url(#clipPath2)" font-family="sans-serif" stroke="none" xml:space="preserve">&lt;/&gt;</text>
      <path fill="none" d="M39 196 L39 236" clip-path="url(#clipPath2)"/>
      <path fill="none" d="M181.0953 191.4877 L155.2098 240.5123" clip-path="url(#clipPath2)"/>
      <path fill="none" d="M217.5149 191.4877 L243.4003 240.5123" clip-path="url(#clipPath2)"/>
      <path fill="none" d="M261.6102 314 L261.6102 354" clip-path="url(#clipPath2)"/>
      <path fill="none" d="M97.2388 71.2612 L60.9137 124.7388" clip-path="url(#clipPath2)"/>
      <path fill="none" d="M141.0663 71.2612 L177.3913 124.7388" clip-path="url(#clipPath2)"/>
    </g>
    <g fill="rgb(204,255,204)" text-rendering="geometricPrecision" shape-rendering="geometricPrecision" transform="matrix(1,0,0,1,15,15)" stroke="rgb(204,255,204)">
      <rect x="232.6102" y="0" clip-path="url(#clipPath2)" width="83" rx="4" ry="4" height="77.2578" stroke="none"/>
    </g>
    <g font-size="15px" stroke-linecap="butt" transform="matrix(1,0,0,1,15,15)" text-rendering="geometricPrecision" font-family="sans-serif" shape-rendering="geometricPrecision" stroke-miterlimit="1.45">
      <text x="295.263" xml:space="preserve" y="15.5791" clip-path="url(#clipPath2)" stroke="none">P1</text>
      <rect x="232.6102" y="0" clip-path="url(#clipPath2)" fill="none" width="83" stroke-dasharray="6,2" rx="4" ry="4" height="77.2578"/>
    </g>
    <g text-rendering="geometricPrecision" stroke-miterlimit="1.45" shape-rendering="geometricPrecision" transform="matrix(1,0,0,1,15,15)" stroke-linecap="butt">
      <path fill="none" d="M254.2352 35.7578 L247.6102 35.7578 L247.6102 62.2578 L254.2352 62.2578" clip-path="url(#clipPath2)"/>
      <text x="263.8836" font-size="16px" y="54.5547" clip-path="url(#clipPath2)" font-family="sans-serif" stroke="none" xml:space="preserve">R1</text>
    </g>
    <g fill="rgb(255,255,153)" text-rendering="geometricPrecision" shape-rendering="geometricPrecision" transform="matrix(1,0,0,1,15,15)" stroke="rgb(255,255,153)">
      <rect x="324.6102" y="0" clip-path="url(#clipPath2)" width="83" rx="4" ry="4" height="116.7578" stroke="none"/>
    </g>
    <g font-size="15px" stroke-linecap="butt" transform="matrix(1,0,0,1,15,15)" text-rendering="geometricPrecision" font-family="sans-serif" shape-rendering="geometricPrecision" stroke-miterlimit="1.45">
      <text x="387.263" xml:space="preserve" y="15.5791" clip-path="url(#clipPath2)" stroke="none">P2</text>
      <rect x="324.6102" y="0" clip-path="url(#clipPath2)" fill="none" width="83" stroke-dasharray="6,2" rx="4" ry="4" height="116.7578"/>
    </g>
    <g text-rendering="geometricPrecision" stroke-miterlimit="1.45" shape-rendering="geometricPrecision" transform="matrix(1,0,0,1,15,15)" stroke-linecap="butt">
      <path fill="none" d="M346.2352 35.7578 L339.6102 35.7578 L339.6102 62.2578 L346.2352 62.2578" clip-path="url(#clipPath2)"/>
      <text x="355.8836" font-size="16px" y="54.5547" clip-path="url(#clipPath2)" font-family="sans-serif" stroke="none" xml:space="preserve">R2</text>
    </g>
    <g text-rendering="geometricPrecision" stroke-miterlimit="1.45" shape-rendering="geometricPrecision" transform="matrix(1,0,0,1,15,15)" stroke-linecap="butt">
      <path fill="none" d="M346.2352 75.2578 L339.6102 75.2578 L339.6102 101.7578 L346.2352 101.7578" clip-path="url(#clipPath2)"/>
      <text x="355.8836" font-size="16px" y="94.0547" clip-path="url(#clipPath2)" font-family="sans-serif" stroke="none" xml:space="preserve">R3</text>
    </g>
    <g fill="rgb(255,255,153)" text-rendering="geometricPrecision" shape-rendering="geometricPrecision" transform="matrix(1,0,0,1,15,15)" stroke="rgb(255,255,153)">
      <rect x="320.6102" width="53" height="26.5" y="297.5" clip-path="url(#clipPath2)" stroke="none"/>
    </g>
    <g text-rendering="geometricPrecision" stroke-miterlimit="1.45" shape-rendering="geometricPrecision" transform="matrix(1,0,0,1,15,15)" stroke-linecap="butt">
      <path fill="none" d="M327.2352 297.5 L320.6102 297.5 L320.6102 324 L327.2352 324" clip-path="url(#clipPath2)"/>
      <text x="336.8836" font-size="16px" y="316.2969" clip-path="url(#clipPath2)" font-family="sans-serif" stroke="none" xml:space="preserve">R3</text>
    </g>
    <g fill="rgb(255,255,153)" text-rendering="geometricPrecision" shape-rendering="geometricPrecision" transform="matrix(1,0,0,1,15,15)" stroke="rgb(255,255,153)">
      <rect x="320.6102" width="53" height="26.5" y="258" clip-path="url(#clipPath2)" stroke="none"/>
    </g>
    <g text-rendering="geometricPrecision" stroke-miterlimit="1.45" shape-rendering="geometricPrecision" transform="matrix(1,0,0,1,15,15)" stroke-linecap="butt">
      <path fill="none" d="M327.2352 258 L320.6102 258 L320.6102 284.5 L327.2352 284.5" clip-path="url(#clipPath2)"/>
      <text x="336.8836" font-size="16px" y="276.7969" clip-path="url(#clipPath2)" font-family="sans-serif" stroke="none" xml:space="preserve">R2</text>
    </g>
    <g fill="rgb(204,255,204)" text-rendering="geometricPrecision" shape-rendering="geometricPrecision" transform="matrix(1,0,0,1,15,15)" stroke="rgb(204,255,204)">
      <rect x="320.6102" width="53" height="26.5" y="218.5" clip-path="url(#clipPath2)" stroke="none"/>
    </g>
    <g text-rendering="geometricPrecision" stroke-miterlimit="1.45" shape-rendering="geometricPrecision" transform="matrix(1,0,0,1,15,15)" stroke-linecap="butt">
      <path fill="none" d="M327.2352 218.5 L320.6102 218.5 L320.6102 245 L327.2352 245" clip-path="url(#clipPath2)"/>
      <text x="336.8836" font-size="16px" y="237.2969" clip-path="url(#clipPath2)" font-family="sans-serif" stroke="none" xml:space="preserve">R1</text>
    </g>
  </g>
</svg>
